<svg width="189" height="144" viewBox="0 0 189 144" fill="none" xmlns="http://www.w3.org/2000/svg">
<path d="M76.8265 47.4952C102.394 28.9192 127.507 14.8222 147.436 7.04494C157.402 3.15565 166.059 0.852563 172.82 0.353187C179.598 -0.147333 184.389 1.16894 186.743 4.40898C189.097 7.64901 188.869 12.6124 186.298 18.9037C183.734 25.1802 178.868 32.7012 172.09 40.9778C158.535 57.5282 137.367 77.0558 111.8 95.6317C86.2321 114.208 61.1193 128.305 41.1902 136.082C31.2239 139.971 22.5675 142.274 15.8058 142.774C9.02807 143.274 4.23695 141.958 1.88293 138.718C-0.471097 135.478 -0.242408 130.514 2.32804 124.223C4.89246 117.947 9.75781 110.426 16.5365 102.149C30.0915 85.5986 51.2589 66.0711 76.8265 47.4952Z" stroke="#FFCEEF" stroke-width="0.5"/>
</svg>
